<svg id="Outline" xmlns="http://www.w3.org/2000/svg" viewBox="0 0 64 64"><path d="M14.562,52v9a1,1,0,0,0,1,1h28a1,1,0,0,0,1-1V52a1,1,0,0,0-1-1H42.055l5.01-12.165a7.118,7.118,0,0,0-.608-7.961,7.333,7.333,0,0,0-4.367-2.588l-.528-.106V10.7A4.6,4.6,0,0,0,37.3,6.006a4.5,4.5,0,0,0-4.74,4.494V26.134l-9.624,1.395a8.965,8.965,0,0,0-8.074,10.362L16.434,51h-.872A1,1,0,0,0,14.562,52Zm28,8h-26V53h26ZM16.844,37.607a6.97,6.97,0,0,1,6.325-8.092L33.705,27.99a1,1,0,0,0,.857-.99V10.5A2.5,2.5,0,0,1,37.2,8a2.641,2.641,0,0,1,2.365,2.7V38h2V30.219l.135.028a5.343,5.343,0,0,1,3.186,1.861h0A5.131,5.131,0,0,1,45.3,37.89a1,1,0,0,0-.061.123L39.892,51H18.449Z" id="id_101" style="fill: rgb(252, 252, 252);"></path><path d="M43.862,15.6a8.5,8.5,0,1,0-13.6,0l1.6-1.2a6.441,6.441,0,0,1-1.3-3.9,6.5,6.5,0,1,1,11.7,3.9Z" id="id_102" style="fill: rgb(252, 252, 252);"></path></svg>